<svg xmlns="http://www.w3.org/2000/svg" width="207.746" height="202.664" viewBox="0 0 207.746 202.664">
  <g id="github-logo" transform="translate(0 -5.365)">
    <path id="Pfad_126" data-name="Pfad 126" d="M193.812,57.1a103.421,103.421,0,0,0-37.8-37.8A101.6,101.6,0,0,0,103.872,5.365,101.609,101.609,0,0,0,51.734,19.3a103.409,103.409,0,0,0-37.8,37.8A101.606,101.606,0,0,0,0,109.234,100.947,100.947,0,0,0,19.814,170.3,101.732,101.732,0,0,0,71.005,207.83q3.652.678,5.409-.946a5.289,5.289,0,0,0,1.758-4.056q0-.406-.068-7.3t-.068-12.035l-3.111.538a39.683,39.683,0,0,1-7.506.474,57.192,57.192,0,0,1-9.4-.947,21,21,0,0,1-9.062-4.055,17.161,17.161,0,0,1-5.95-8.317l-1.352-3.112a33.8,33.8,0,0,0-4.26-6.9,16.321,16.321,0,0,0-5.883-5.139l-.947-.678a9.929,9.929,0,0,1-1.758-1.624,7.42,7.42,0,0,1-1.217-1.893q-.406-.949.676-1.558a8.772,8.772,0,0,1,3.922-.6l2.7.4a19.743,19.743,0,0,1,6.7,3.245,21.829,21.829,0,0,1,6.559,7.031,23.841,23.841,0,0,0,7.506,8.454,15.923,15.923,0,0,0,8.858,2.907,38.463,38.463,0,0,0,7.709-.674,26.9,26.9,0,0,0,6.086-2.03q1.217-9.065,6.626-13.932a92.609,92.609,0,0,1-13.863-2.435,55.2,55.2,0,0,1-12.712-5.277,36.411,36.411,0,0,1-10.888-9.06,43.546,43.546,0,0,1-7.1-14.2A67.532,67.532,0,0,1,37.6,103.822q0-16.368,10.686-27.863-5.005-12.306.946-27.589,3.922-1.219,11.632,1.825A81.32,81.32,0,0,1,72.154,55.4q3.586,2.161,5.749,3.651a97.678,97.678,0,0,1,51.939,0l5.139-3.244a72.788,72.788,0,0,1,12.441-5.952q7.168-2.7,10.959-1.487,6.084,15.284,1.08,27.589,10.684,11.5,10.687,27.863a68.287,68.287,0,0,1-2.773,20.354,41.855,41.855,0,0,1-7.165,14.2,37.811,37.811,0,0,1-10.958,8.994,55.3,55.3,0,0,1-12.715,5.275,92.511,92.511,0,0,1-13.862,2.438q7.03,6.084,7.031,19.2v28.535a5.388,5.388,0,0,0,1.692,4.056q1.69,1.619,5.342.945A101.718,101.718,0,0,0,187.933,170.3a100.968,100.968,0,0,0,19.813-61.065A101.688,101.688,0,0,0,193.812,57.1Z" fill="#fff"/>
  </g>
</svg>
