<svg id="undraw_gone_shopping_vwmc" xmlns="http://www.w3.org/2000/svg" width="661.93" height="646.154" viewBox="0 0 661.93 646.154">
  <path id="Pfad_8" data-name="Pfad 8" d="M711.661,406.335l-6.99,16.309L661.8,479.492s-29.356,31.686-13.047,33.55,27.026-29.356,27.026-29.356l50.324-49.858,5.592-22.832Z" transform="translate(-269.035 -126.923)" fill="#9f616a"/>
  <path id="Pfad_9" data-name="Pfad 9" d="M733.1,340.168l-6.754,1.891s-30.329,80.57-27.533,90.355,15.377,21.9,20.969,20.969S733.1,340.168,733.1,340.168Z" transform="translate(-269.035 -126.923)" fill="#fff"/>
  <path id="Pfad_10" data-name="Pfad 10" d="M827.473,754.22s-2.966,14.863,5.949,8.915,13.563-17.453,13.563-17.453Z" transform="translate(-269.035 -126.923)" fill="#2f2e41"/>
  <path id="Pfad_11" data-name="Pfad 11" d="M721.912,418.916S627.321,752.549,660.87,762.334s82.942-.932,82.476-7.455-8.853-135.6-8.853-135.6S783.42,790.758,844,750.685s47.063-47.529,41.471-50.324S795.535,564.764,796,540.068s-.932-102.047-11.183-113.7Z" transform="translate(-269.035 -126.923)" fill="#2f2e41"/>
  <path id="Pfad_12" data-name="Pfad 12" d="M661.535,646.154H87.455v-2.182H661.93Z" fill="#3f3d56"/>
  <path id="Pfad_13" data-name="Pfad 13" d="M781.993,300.3a19.568,19.568,0,0,1-2.431-26.383c-.394.369-.779.753-1.148,1.161a19.571,19.571,0,1,0,29.033,26.251c.369-.408.712-.83,1.04-1.259A19.568,19.568,0,0,1,781.993,300.3Z" transform="translate(-269.035 -126.923)" fill="#2f2e41"/>
  <circle id="Ellipse_10" data-name="Ellipse 10" cx="40.306" cy="40.306" r="40.306" transform="translate(470.817 97.452)" fill="#2f2e41"/>
  <path id="Pfad_14" data-name="Pfad 14" d="M671.588,760.936s-10.717,10.717,0,10.717,20.969-6.99,20.969-6.99Z" transform="translate(-269.035 -126.923)" fill="#2f2e41"/>
  <path id="Pfad_15" data-name="Pfad 15" d="M754.53,289.844s6.99,28.89,1.864,34.482-16.309,9.785-16.309,9.785l1.864,52.188s21.435-7.455,22.366-8.387,20.037-31.22,20.037-31.22l18.639-17.707s-28.424-13.513-20.037-36.811S754.53,289.844,754.53,289.844Z" transform="translate(-269.035 -126.923)" fill="#9f616a"/>
  <circle id="Ellipse_11" data-name="Ellipse 11" cx="24.23" cy="24.23" r="24.23" transform="translate(474.936 169.441) rotate(-80.783)" fill="#9f616a"/>
  <path id="Pfad_16" data-name="Pfad 16" d="M784.818,426.372s10.717-35.414,15.843-40.073,17.707-48.461,17.707-48.461-7.921-10.717-14.445-10.717-12.581,2.33-20.037,9.319c-3.511,3.292-9.915,6.913-15.708,9.824a17.378,17.378,0,0,1-23.524-7.852c-1.158-2.461-1.54-4.82-.375-6.632,0,0-17.241,4.66-18.173,11.183s0,20.037-1.4,22.832-5.592,6.99-3.728,24.7-1.945,40.1-1.945,40.1C736.441,447.2,760.555,436.946,784.818,426.372Z" transform="translate(-269.035 -126.923)" fill="#fff"/>
  <ellipse id="Ellipse_12" data-name="Ellipse 12" cx="20.503" cy="13.979" rx="20.503" ry="13.979" transform="translate(482 113.761)" fill="#2f2e41"/>
  <circle id="Ellipse_13" data-name="Ellipse 13" cx="19.571" cy="19.571" r="19.571" transform="translate(517.88 87.667)" fill="#2f2e41"/>
  <path id="Pfad_17" data-name="Pfad 17" d="M820.464,248.139a19.568,19.568,0,0,1-19.5-17.937c-.045.536-.073,1.078-.073,1.628a19.571,19.571,0,0,0,39.141.017v-.017c0-.55-.028-1.093-.073-1.631A19.568,19.568,0,0,1,820.464,248.139Z" transform="translate(-269.035 -126.923)" fill="#2f2e41"/>
  <path id="Pfad_18" data-name="Pfad 18" d="M505.528,420.53h-6.51l-13.01,113.48,42.91-1.44Z" fill="#fff"/>
  <path id="Pfad_19" data-name="Pfad 19" d="M505.528,420.53h-6.51l-13.01,113.48,42.91-1.44Z" opacity="0.2" style="isolation: isolate"/>
  <path id="Pfad_20" data-name="Pfad 20" d="M503.358,419.08l-7.95,114.21,97.39,7.23,7.95-111.32Z" fill="#fff"/>
  <circle id="Ellipse_14" data-name="Ellipse 14" cx="1.45" cy="1.45" r="1.45" transform="translate(534.698 427.75)" opacity="0.2" style="isolation: isolate"/>
  <circle id="Ellipse_15" data-name="Ellipse 15" cx="1.45" cy="1.45" r="1.45" transform="translate(565.058 431.36)" opacity="0.2" style="isolation: isolate"/>
  <path id="Pfad_21" data-name="Pfad 21" d="M835.9,559.743h-.72c0-.31.51-30.8-17-33.61-3.45-.55-6.27.23-8.38,2.32-7.23,7.17-4.24,27.42-4.21,27.62l-.71.11c-.13-.85-3.07-20.82,4.42-28.24,2.28-2.27,5.32-3.12,9-2.53C836.423,528.313,835.913,559.433,835.9,559.743Z" transform="translate(-269.035 -126.923)" fill="#3f3d56"/>
  <path id="Pfad_22" data-name="Pfad 22" d="M819.765,402.142l-2.33,26.094,4.66,78.282s10.717,39.607-5.592,38.675-10.251-41.471-10.251-41.471L798.8,412.859Z" transform="translate(-269.035 -126.923)" fill="#9f616a"/>
  <path id="Pfad_23" data-name="Pfad 23" d="M806.252,331.315l12.115,6.524s16.309,110.848,6.99,121.565S796.933,474.314,796,470.121s-4.194-89.414-4.194-89.414Z" transform="translate(-269.035 -126.923)" fill="#fff"/>
  <path id="Pfad_24" data-name="Pfad 24" d="M335,126.923H321.407a1.8,1.8,0,0,0-1.8,1.8v5.965a1.8,1.8,0,0,0,1.8,1.8h2.252v8.937h9.085v-8.937H335a1.8,1.8,0,0,0,1.8-1.8v-5.965a1.8,1.8,0,0,0-1.8-1.8Z" transform="translate(-269.035 -126.923)" fill="#e6e6e6"/>
  <path id="Pfad_25" data-name="Pfad 25" d="M348.607,181.511a69.863,69.863,0,0,1-12.154-41.421,1.473,1.473,0,0,0-1.15-1.47v-2.577H320.951v2.541h-.2a1.473,1.473,0,0,0-1.471,1.475q0,.054,0,.107,1.7,23.641-11.454,42.4a4.059,4.059,0,0,0-.734,2.459l1.569,48.543a4.2,4.2,0,0,0,4.166,4.056H345.3a4.2,4.2,0,0,0,4.169-4.127l.6-47.131A8.506,8.506,0,0,0,348.607,181.511Z" transform="translate(-269.035 -126.923)" fill="#e6e6e6"/>
  <path id="Pfad_26" data-name="Pfad 26" d="M343.469,197.635H315.213a2.9,2.9,0,0,0-2.867,3.342l4.27,27.753h24.518l5.186-27.66a2.9,2.9,0,0,0-2.851-3.436Z" transform="translate(-269.035 -126.923)" fill="#fff"/>
  <path id="Pfad_27" data-name="Pfad 27" d="M486.268,272.339H472.679a1.8,1.8,0,0,0-1.8,1.8V280.1a1.8,1.8,0,0,0,1.8,1.8h2.252v8.937h9.085v-8.937h2.252a1.8,1.8,0,0,0,1.8-1.8V274.14a1.8,1.8,0,0,0-1.8-1.8Z" transform="translate(-269.035 -126.923)" fill="#e6e6e6"/>
  <path id="Pfad_28" data-name="Pfad 28" d="M499.879,326.927a69.863,69.863,0,0,1-12.154-41.421,1.473,1.473,0,0,0-1.15-1.47v-2.577H472.223V284h-.2a1.473,1.473,0,0,0-1.471,1.475q0,.054,0,.107,1.7,23.641-11.454,42.4a4.058,4.058,0,0,0-.734,2.459l1.569,48.543a4.2,4.2,0,0,0,4.166,4.056h32.462a4.2,4.2,0,0,0,4.169-4.127l.6-47.131a8.506,8.506,0,0,0-1.462-4.857Z" transform="translate(-269.035 -126.923)" fill="#e6e6e6"/>
  <path id="Pfad_29" data-name="Pfad 29" d="M494.74,343.051H466.485a2.9,2.9,0,0,0-2.867,3.342l4.27,27.753H492.4l5.186-27.66a2.9,2.9,0,0,0-2.851-3.436Z" transform="translate(-269.035 -126.923)" fill="#fff"/>
  <path id="Pfad_30" data-name="Pfad 30" d="M315.892,477.914h-6.446a.855.855,0,0,0-.855.855V481.6a.855.855,0,0,0,.855.855h1.068v4.239h4.31v-4.239h1.068a.855.855,0,0,0,.855-.855v-2.829a.855.855,0,0,0-.855-.855Z" transform="translate(-269.035 -126.923)" fill="#e6e6e6"/>
  <path id="Pfad_31" data-name="Pfad 31" d="M322.348,503.807a33.139,33.139,0,0,1-5.765-19.648.7.7,0,0,0-.546-.7v-1.223H309.23v1.206h-.094a.7.7,0,0,0-.7.7q0,.025,0,.051a30.244,30.244,0,0,1-5.433,20.113,1.925,1.925,0,0,0-.348,1.167L303.4,528.5a1.993,1.993,0,0,0,1.976,1.924h15.4a1.994,1.994,0,0,0,1.977-1.958l.287-22.356a4.035,4.035,0,0,0-.694-2.3Z" transform="translate(-269.035 -126.923)" fill="#e6e6e6"/>
  <rect id="Rechteck_9" data-name="Rechteck 9" width="14.692" height="7.346" transform="translate(36.405 385.348)" fill="#fff"/>
  <path id="Pfad_32" data-name="Pfad 32" d="M345.9,477.914h-6.446a.855.855,0,0,0-.855.855V481.6a.855.855,0,0,0,.855.855h1.068v4.239h4.31v-4.239H345.9a.855.855,0,0,0,.855-.855v-2.829a.855.855,0,0,0-.855-.855Z" transform="translate(-269.035 -126.923)" fill="#e6e6e6"/>
  <path id="Pfad_33" data-name="Pfad 33" d="M352.354,503.807a33.14,33.14,0,0,1-5.765-19.648.7.7,0,0,0-.546-.7v-1.223h-6.808v1.206h-.094a.7.7,0,0,0-.7.7q0,.025,0,.051a30.244,30.244,0,0,1-5.433,20.113,1.925,1.925,0,0,0-.348,1.167l.744,23.026a1.993,1.993,0,0,0,1.976,1.924h15.4a1.994,1.994,0,0,0,1.977-1.958l.287-22.356A4.035,4.035,0,0,0,352.354,503.807Z" transform="translate(-269.035 -126.923)" fill="#e6e6e6"/>
  <rect id="Rechteck_10" data-name="Rechteck 10" width="14.692" height="7.346" transform="translate(66.411 385.348)" fill="#fff"/>
  <path id="Pfad_34" data-name="Pfad 34" d="M375.9,477.914h-6.446a.855.855,0,0,0-.855.855V481.6a.855.855,0,0,0,.855.855h1.068v4.239h4.31v-4.239H375.9a.855.855,0,0,0,.855-.855v-2.829a.855.855,0,0,0-.855-.855Z" transform="translate(-269.035 -126.923)" fill="#e6e6e6"/>
  <path id="Pfad_35" data-name="Pfad 35" d="M382.36,503.807a33.139,33.139,0,0,1-5.765-19.648.7.7,0,0,0-.546-.7v-1.223h-6.808v1.206h-.094a.7.7,0,0,0-.7.7q0,.025,0,.051a30.244,30.244,0,0,1-5.433,20.113,1.925,1.925,0,0,0-.348,1.167l.744,23.026a1.993,1.993,0,0,0,1.976,1.924h15.4a1.994,1.994,0,0,0,1.977-1.958l.287-22.356a4.035,4.035,0,0,0-.694-2.3Z" transform="translate(-269.035 -126.923)" fill="#e6e6e6"/>
  <rect id="Rechteck_11" data-name="Rechteck 11" width="14.692" height="7.346" transform="translate(96.417 385.348)" fill="#fff"/>
  <path id="Pfad_36" data-name="Pfad 36" d="M462.661,421.658H449.072a1.8,1.8,0,0,0-1.8,1.8v5.965a1.8,1.8,0,0,0,1.8,1.8h2.252v8.937h9.085v-8.937h2.252a1.8,1.8,0,0,0,1.8-1.8V423.46A1.8,1.8,0,0,0,462.661,421.658Z" transform="translate(-269.035 -126.923)" fill="#e6e6e6"/>
  <path id="Pfad_37" data-name="Pfad 37" d="M476.271,476.246a69.863,69.863,0,0,1-12.154-41.421,1.473,1.473,0,0,0-1.15-1.47v-2.577H448.616v2.541h-.2a1.472,1.472,0,0,0-1.471,1.475q0,.054,0,.107,1.7,23.641-11.454,42.4a4.059,4.059,0,0,0-.734,2.459l1.569,48.543a4.2,4.2,0,0,0,4.166,4.056H472.96a4.2,4.2,0,0,0,4.169-4.127l.6-47.131a8.506,8.506,0,0,0-1.462-4.857Z" transform="translate(-269.035 -126.923)" fill="#e6e6e6"/>
  <path id="Pfad_38" data-name="Pfad 38" d="M471.133,492.37H442.878a2.9,2.9,0,0,0-2.867,3.342l4.27,27.753H468.8l5.186-27.66a2.9,2.9,0,0,0-2.851-3.436Z" transform="translate(-269.035 -126.923)" fill="#fff"/>
  <path id="Pfad_39" data-name="Pfad 39" d="M470.079,243.875h-81c5.663-30.619,4.36-67.592,0-107.354h81C465.835,176.283,464.567,213.256,470.079,243.875Z" transform="translate(-269.035 -126.923)" fill="#e6e6e6"/>
  <circle id="Ellipse_16" data-name="Ellipse 16" cx="19.519" cy="19.519" r="19.519" transform="translate(141.512 40.828)" fill="#fff"/>
  <path id="Pfad_40" data-name="Pfad 40" d="M395.908,386.363h-81c5.663-30.619,4.36-67.592,0-107.354h81C391.663,318.771,390.395,355.744,395.908,386.363Z" transform="translate(-269.035 -126.923)" fill="#e6e6e6"/>
  <circle id="Ellipse_17" data-name="Ellipse 17" cx="19.519" cy="19.519" r="19.519" transform="translate(67.34 183.316)" fill="#fff"/>
  <path id="Pfad_41" data-name="Pfad 41" d="M515.949,250.707h-81c5.663-30.619,4.36-67.592,0-107.354h81C511.7,183.115,510.436,220.088,515.949,250.707Z" transform="translate(-269.035 -126.923)" fill="#e6e6e6"/>
  <circle id="Ellipse_18" data-name="Ellipse 18" cx="19.519" cy="19.519" r="19.519" transform="translate(187.381 47.66)" fill="#fff"/>
  <path id="Pfad_42" data-name="Pfad 42" d="M515.949,245.827h-81c5.663-30.619,4.36-67.592,0-107.354h81C511.7,178.235,510.436,215.208,515.949,245.827Z" transform="translate(-269.035 -126.923)" fill="#e6e6e6"/>
  <circle id="Ellipse_19" data-name="Ellipse 19" cx="19.519" cy="19.519" r="19.519" transform="translate(187.381 42.78)" fill="#fff"/>
  <path id="Pfad_43" data-name="Pfad 43" d="M515.949,250.707h-81c5.663-30.619,4.36-67.592,0-107.354h81C511.7,183.115,510.436,220.088,515.949,250.707Z" transform="translate(-269.035 -126.923)" fill="#e6e6e6"/>
  <circle id="Ellipse_20" data-name="Ellipse 20" cx="19.519" cy="19.519" r="19.519" transform="translate(187.381 47.66)" fill="#fff"/>
  <rect id="Rechteck_12" data-name="Rechteck 12" width="265.457" height="29.278" transform="translate(0 111.096)" fill="#e6e6e6"/>
  <rect id="Rechteck_13" data-name="Rechteck 13" width="265.457" height="29.278" transform="translate(0 256.512)" fill="#e6e6e6"/>
  <rect id="Rechteck_14" data-name="Rechteck 14" width="265.457" height="29.278" transform="translate(0 401.928)" fill="#e6e6e6"/>
</svg>
